<svg xmlns="http://www.w3.org/2000/svg" xmlns:xlink="http://www.w3.org/1999/xlink" width="196" zoomAndPan="magnify" viewBox="0 0 147 35.25" height="47" preserveAspectRatio="xMidYMid meet" version="1.0"><defs><clipPath id="f53ffd891f"><path d="M 54 0 L 93 0 L 93 34.515625 L 54 34.515625 Z M 54 0 " clip-rule="nonzero"/></clipPath><clipPath id="f9b7bee69a"><path d="M 85 11 L 95.851562 11 L 95.851562 19 L 85 19 Z M 85 11 " clip-rule="nonzero"/></clipPath><clipPath id="22d4b852ef"><path d="M 74 17 L 76 17 L 76 18 L 74 18 Z M 74 17 " clip-rule="nonzero"/></clipPath><clipPath id="e62e003da2"><path d="M 75.332031 18.015625 L 74.597656 17.992188 L 74.621094 17.257812 L 75.355469 17.28125 Z M 75.332031 18.015625 " clip-rule="nonzero"/></clipPath><clipPath id="ca0af40d37"><path d="M 75.332031 18.015625 L 74.597656 17.992188 L 74.621094 17.257812 L 75.355469 17.28125 Z M 75.332031 18.015625 " clip-rule="nonzero"/></clipPath><clipPath id="671d32b79d"><path d="M 74 17 L 76 17 L 76 19 L 74 19 Z M 74 17 " clip-rule="nonzero"/></clipPath><clipPath id="e05c6ad6fd"><path d="M 75.058594 18.429688 L 74.433594 18.046875 L 74.816406 17.421875 L 75.441406 17.804688 Z M 75.058594 18.429688 " clip-rule="nonzero"/></clipPath><clipPath id="1c92d02275"><path d="M 75.058594 18.429688 L 74.433594 18.046875 L 74.816406 17.421875 L 75.441406 17.804688 Z M 75.058594 18.429688 " clip-rule="nonzero"/></clipPath><clipPath id="c94c20a25b"><path d="M 74 17 L 75 17 L 75 19 L 74 19 Z M 74 17 " clip-rule="nonzero"/></clipPath><clipPath id="52bda2bdc4"><path d="M 75.058594 18.429688 L 74.433594 18.046875 L 74.816406 17.421875 L 75.441406 17.804688 Z M 75.058594 18.429688 " clip-rule="nonzero"/></clipPath><clipPath id="1a0365ea17"><path d="M 75.058594 18.429688 L 74.433594 18.046875 L 74.816406 17.421875 L 75.441406 17.804688 Z M 75.058594 18.429688 " clip-rule="nonzero"/></clipPath></defs><g clip-path="url(#f53ffd891f)"><path fill="#bf1b2c" d="M 92.179688 5.28125 C 92.128906 5.191406 92.082031 5.101562 92.027344 5.011719 L 91.851562 4.757812 C 91.726562 4.585938 91.609375 4.40625 91.472656 4.246094 L 91.050781 3.769531 C 90.984375 3.6875 90.902344 3.617188 90.824219 3.546875 L 90.585938 3.332031 C 90.503906 3.261719 90.425781 3.183594 90.339844 3.117188 L 90.082031 2.925781 C 89.738281 2.65625 89.351562 2.453125 88.964844 2.238281 L 88.359375 1.96875 C 88.15625 1.882812 87.945312 1.824219 87.734375 1.75 C 87.527344 1.671875 87.3125 1.632812 87.097656 1.578125 L 86.773438 1.5 L 86.445312 1.445312 C 86.007812 1.359375 85.570312 1.335938 85.128906 1.304688 L 84.46875 1.292969 C 84.25 1.292969 84.03125 1.308594 83.8125 1.316406 C 83.589844 1.320312 83.375 1.347656 83.160156 1.367188 L 82.832031 1.402344 L 82.507812 1.449219 C 82.078125 1.507812 81.652344 1.589844 81.226562 1.675781 L 80.59375 1.824219 L 79.972656 2 C 79.558594 2.121094 79.148438 2.25 78.742188 2.390625 C 78.539062 2.460938 78.335938 2.535156 78.136719 2.609375 C 77.933594 2.683594 77.734375 2.765625 77.539062 2.847656 C 77.140625 3.007812 76.75 3.183594 76.359375 3.367188 C 75.972656 3.546875 75.585938 3.738281 75.203125 3.9375 C 75.203125 3.941406 75.199219 3.941406 75.195312 3.945312 C 74.960938 3.785156 74.726562 3.628906 74.488281 3.476562 C 73.941406 3.128906 73.382812 2.804688 72.808594 2.5 C 72.523438 2.34375 72.234375 2.199219 71.941406 2.054688 C 71.644531 1.914062 71.351562 1.773438 71.046875 1.644531 C 70.449219 1.378906 69.828125 1.140625 69.191406 0.929688 C 67.921875 0.503906 66.566406 0.203125 65.136719 0.101562 C 63.710938 0.00390625 62.175781 0.15625 60.699219 0.667969 C 59.21875 1.179688 57.855469 2.113281 56.816406 3.238281 C 56.6875 3.378906 56.546875 3.515625 56.429688 3.664062 L 56.082031 4.109375 L 55.910156 4.332031 L 55.824219 4.445312 L 55.800781 4.472656 C 55.839844 4.414062 55.734375 4.570312 55.742188 4.558594 L 55.734375 4.570312 L 55.703125 4.621094 L 55.582031 4.8125 L 55.523438 4.90625 C 55.511719 4.925781 55.503906 4.933594 55.488281 4.960938 L 55.445312 5.035156 L 55.277344 5.339844 L 55.195312 5.492188 L 55.152344 5.570312 L 55.121094 5.640625 C 55.035156 5.820312 54.953125 6.003906 54.875 6.1875 L 54.664062 6.738281 L 54.492188 7.289062 C 54.285156 8.023438 54.160156 8.75 54.085938 9.464844 C 54.007812 10.179688 53.992188 10.882812 54.015625 11.570312 C 54.03125 12.257812 54.089844 12.9375 54.179688 13.601562 C 54.21875 13.9375 54.277344 14.265625 54.332031 14.59375 C 54.394531 14.917969 54.453125 15.246094 54.527344 15.566406 C 54.804688 16.855469 55.1875 18.105469 55.632812 19.316406 C 56.082031 20.53125 56.605469 21.707031 57.1875 22.847656 C 57.785156 23.984375 58.429688 25.089844 59.148438 26.148438 C 59.511719 26.675781 59.890625 27.191406 60.28125 27.695312 C 60.480469 27.949219 60.679688 28.199219 60.882812 28.445312 C 61.09375 28.6875 61.300781 28.933594 61.519531 29.167969 C 61.949219 29.644531 62.40625 30.101562 62.871094 30.546875 C 63.339844 30.988281 63.839844 31.398438 64.351562 31.796875 C 65.378906 32.585938 66.503906 33.265625 67.722656 33.753906 C 68.933594 34.242188 70.261719 34.507812 71.558594 34.429688 C 72.859375 34.351562 74.089844 33.882812 75.082031 33.179688 C 73.910156 33.535156 72.722656 33.632812 71.609375 33.417969 C 71.054688 33.3125 70.515625 33.148438 70.007812 32.925781 C 69.496094 32.707031 69.003906 32.441406 68.542969 32.128906 C 68.078125 31.820312 67.632812 31.484375 67.210938 31.113281 C 67.003906 30.925781 66.792969 30.738281 66.59375 30.539062 C 66.390625 30.347656 66.195312 30.140625 66 29.9375 C 65.621094 29.519531 65.253906 29.089844 64.902344 28.640625 C 64.550781 28.195312 64.214844 27.738281 63.898438 27.261719 C 63.578125 26.789062 63.277344 26.304688 62.980469 25.816406 C 62.6875 25.328125 62.410156 24.824219 62.148438 24.316406 C 61.617188 23.304688 61.132812 22.265625 60.710938 21.207031 C 60.289062 20.144531 59.910156 19.070312 59.59375 17.984375 C 59.277344 16.902344 59.019531 15.804688 58.835938 14.714844 C 58.652344 13.628906 58.550781 12.542969 58.550781 11.5 C 58.546875 11.234375 58.5625 10.980469 58.570312 10.722656 C 58.589844 10.472656 58.609375 10.21875 58.640625 9.976562 C 58.699219 9.488281 58.792969 9.019531 58.921875 8.589844 L 59.023438 8.273438 L 59.136719 7.976562 L 59.265625 7.695312 L 59.28125 7.664062 L 59.296875 7.640625 L 59.320312 7.59375 C 59.335938 7.5625 59.355469 7.53125 59.367188 7.5 L 59.378906 7.476562 C 59.382812 7.46875 59.398438 7.449219 59.40625 7.433594 L 59.46875 7.339844 L 59.589844 7.148438 L 59.757812 6.933594 L 59.964844 6.660156 C 60.035156 6.570312 60.113281 6.5 60.1875 6.414062 C 60.789062 5.773438 61.460938 5.285156 62.257812 4.988281 C 62.460938 4.921875 62.652344 4.832031 62.871094 4.792969 L 63.191406 4.710938 L 63.527344 4.65625 L 63.691406 4.628906 C 63.75 4.617188 63.808594 4.617188 63.867188 4.613281 L 64.214844 4.578125 C 64.328125 4.566406 64.453125 4.574219 64.570312 4.566406 C 64.691406 4.570312 64.808594 4.554688 64.933594 4.566406 C 65.910156 4.589844 66.941406 4.753906 67.976562 5.023438 C 69.011719 5.300781 70.054688 5.664062 71.078125 6.109375 C 71.589844 6.328125 72.101562 6.5625 72.605469 6.816406 C 72.855469 6.941406 73.101562 7.070312 73.347656 7.203125 L 73.710938 7.40625 L 74.039062 7.597656 L 75.273438 8.3125 L 76.125 7.597656 C 76.167969 7.558594 76.253906 7.496094 76.320312 7.445312 L 76.542969 7.285156 L 77 6.960938 C 77.3125 6.746094 77.628906 6.535156 77.949219 6.335938 C 78.269531 6.132812 78.597656 5.933594 78.929688 5.75 C 79.09375 5.65625 79.257812 5.5625 79.425781 5.46875 C 79.59375 5.378906 79.757812 5.285156 79.929688 5.199219 C 80.261719 5.023438 80.605469 4.859375 80.949219 4.703125 L 81.464844 4.472656 C 81.640625 4.402344 81.8125 4.328125 81.988281 4.257812 C 82.339844 4.121094 82.691406 3.988281 83.046875 3.878906 L 83.316406 3.789062 L 83.585938 3.714844 C 83.765625 3.667969 83.945312 3.613281 84.125 3.574219 C 84.304688 3.535156 84.488281 3.488281 84.667969 3.449219 L 85.214844 3.355469 C 85.582031 3.3125 85.949219 3.265625 86.316406 3.257812 L 86.59375 3.242188 L 86.867188 3.25 C 87.050781 3.257812 87.238281 3.253906 87.417969 3.28125 C 87.601562 3.304688 87.789062 3.316406 87.96875 3.347656 L 88.515625 3.453125 C 88.875 3.550781 89.238281 3.648438 89.585938 3.800781 L 89.851562 3.910156 C 89.9375 3.949219 90.019531 3.996094 90.105469 4.039062 L 90.363281 4.171875 C 90.449219 4.21875 90.535156 4.261719 90.613281 4.316406 L 91.109375 4.636719 C 91.195312 4.6875 91.261719 4.753906 91.339844 4.816406 L 91.574219 5 L 91.808594 5.1875 C 91.882812 5.253906 91.957031 5.328125 92.03125 5.398438 L 92.476562 5.820312 L 92.179688 5.28125 " fill-opacity="1" fill-rule="nonzero"/></g><g clip-path="url(#f9b7bee69a)"><path fill="#80cc28" d="M 95.851562 11.261719 C 95.851562 11.261719 95.441406 17.796875 85.910156 18.105469 C 90.738281 16.203125 92.921875 13.011719 92.921875 13.011719 C 88.921875 16.558594 86.800781 17.160156 85.816406 17.160156 C 85.523438 9.859375 95.851562 11.261719 95.851562 11.261719 " fill-opacity="1" fill-rule="nonzero"/></g><path fill="#80cc28" d="M 82.214844 8.015625 C 82.214844 8.015625 87.019531 10.035156 84.753906 17.363281 C 84.589844 13.195312 82.761719 10.699219 82.761719 10.699219 C 84.378906 14.667969 84.277344 16.4375 84.019531 17.183594 C 78.457031 15.496094 82.214844 8.015625 82.214844 8.015625 " fill-opacity="1" fill-rule="nonzero"/><path fill="#004aad" d="M 83.300781 18.191406 L 77.40625 18.191406 L 77.40625 12.261719 C 77.40625 11.113281 76.476562 10.175781 75.332031 10.175781 C 74.1875 10.175781 73.257812 11.113281 73.257812 12.261719 L 73.257812 18.191406 L 67.359375 18.191406 C 66.214844 18.191406 65.289062 19.125 65.289062 20.277344 C 65.289062 21.429688 66.214844 22.363281 67.359375 22.363281 L 73.257812 22.363281 L 73.257812 28.289062 C 73.257812 29.441406 74.1875 30.375 75.332031 30.375 C 76.476562 30.375 77.40625 29.441406 77.40625 28.289062 L 77.40625 22.363281 L 83.300781 22.363281 C 84.445312 22.363281 85.375 21.429688 85.375 20.277344 C 85.375 19.125 84.445312 18.191406 83.300781 18.191406 " fill-opacity="1" fill-rule="nonzero"/><g clip-path="url(#22d4b852ef)"><g clip-path="url(#e62e003da2)"><g clip-path="url(#ca0af40d37)"><path fill="#bf1b2c" d="M 75.28125 17.570312 C 75.355469 17.5 75.359375 17.425781 75.292969 17.347656 C 75.226562 17.269531 75.152344 17.265625 75.078125 17.332031 L 74.890625 17.5 L 75.097656 17.738281 Z M 75.089844 17.625 L 75.230469 17.496094 C 75.242188 17.488281 75.25 17.488281 75.261719 17.5 C 75.273438 17.511719 75.273438 17.523438 75.261719 17.53125 L 75.121094 17.660156 C 75.109375 17.671875 75.097656 17.671875 75.085938 17.660156 C 75.078125 17.648438 75.078125 17.636719 75.089844 17.625 Z M 75.089844 17.625 " fill-opacity="1" fill-rule="nonzero"/><path fill="#bf1b2c" d="M 74.660156 17.929688 C 74.726562 18.007812 74.800781 18.011719 74.878906 17.941406 L 75.0625 17.769531 L 74.859375 17.535156 L 74.671875 17.703125 C 74.597656 17.773438 74.59375 17.847656 74.660156 17.929688 Z M 74.660156 17.929688 " fill-opacity="1" fill-rule="nonzero"/></g></g></g><g clip-path="url(#671d32b79d)"><g clip-path="url(#e05c6ad6fd)"><g clip-path="url(#1c92d02275)"><path fill="#80cc28" d="M 75.238281 18.019531 C 75.335938 17.992188 75.378906 17.929688 75.355469 17.828125 C 75.335938 17.730469 75.277344 17.691406 75.179688 17.710938 L 74.933594 17.765625 L 74.992188 18.074219 Z M 75.042969 17.972656 L 75.230469 17.929688 C 75.246094 17.925781 75.253906 17.933594 75.257812 17.945312 C 75.261719 17.960938 75.253906 17.972656 75.238281 17.976562 L 75.050781 18.019531 C 75.035156 18.023438 75.027344 18.015625 75.023438 18 C 75.023438 17.984375 75.027344 17.976562 75.042969 17.972656 Z M 75.042969 17.972656 " fill-opacity="1" fill-rule="nonzero"/></g></g></g><g clip-path="url(#c94c20a25b)"><g clip-path="url(#52bda2bdc4)"><g clip-path="url(#1a0365ea17)"><path fill="#80cc28" d="M 74.519531 18.023438 C 74.539062 18.125 74.601562 18.164062 74.703125 18.140625 L 74.949219 18.085938 L 74.886719 17.777344 L 74.640625 17.832031 C 74.539062 17.855469 74.5 17.917969 74.519531 18.023438 Z M 74.519531 18.023438 " fill-opacity="1" fill-rule="nonzero"/></g></g></g></svg>